<svg width="1399" height="1001" viewBox="0 0 1399 1001" fill="none" xmlns="http://www.w3.org/2000/svg">
<g clip-path="url(#clip0_874_126)">
<path d="M679.105 91.83C595.772 -10.5 472 -0.000276625 472 -0.000276625L348.5 -0.000368178H191.5L79.5 -0.000276625H0V797.5C0 797.5 85.8802 912.774 160.526 957.82C256.13 1015.51 338.75 1008.37 446.072 977.253C568.522 941.752 630.817 844.639 736.119 772.963C830.746 708.552 930.651 642.915 930.651 642.915C930.651 642.915 1369.2 444.902 1395.23 338.971C1412.24 269.711 1366.22 269.711 1366.22 269.711C1295.21 228.853 1042.49 443.268 1012.16 432.147C970.675 416.932 1123.18 320.037 1127.18 269.711C1131.18 219.386 1099.68 188.992 1050.67 206.929C1001.66 224.867 833.635 440.618 736.119 378.832C638.603 317.047 790.8 228.986 679.105 91.83Z" fill="url(#paint0_linear_874_126)"/>
</g>
<defs>
<linearGradient id="paint0_linear_874_126" x1="716.615" y1="1000.67" x2="4.43672" y2="0.192364" gradientUnits="userSpaceOnUse">
<stop stop-color="#F9DD80"/>
<stop offset="0.495" stop-color="#F4BB00"/>
<stop offset="1" stop-color="#F46B00"/>
</linearGradient>
<clipPath id="clip0_874_126">
<rect width="1399" height="1001" fill="white"/>
</clipPath>
</defs>
</svg>
