<svg width="1819" height="1134" viewBox="0 0 1819 1134" fill="none" xmlns="http://www.w3.org/2000/svg">
<path d="M673 0.367188C673 0.367188 866 11.7812 964 109C1062 206.219 1041.5 236 1080 344C1129.5 527 1276.5 445.245 1359 357.927C1441.5 270.609 1433.5 251.781 1514 207C1594.5 162.219 1620.22 210.267 1614.5 270.609C1608.78 330.951 1364.27 529.401 1408 573.5C1467.5 633.5 1692.89 308.937 1794.5 357.927C1794.5 357.927 1847.86 384.292 1794.5 452.427C1664.51 618.421 1568.07 696.667 1539.92 717.873C1538.63 718.922 1535.97 720.838 1533.98 722.25C1532.34 723.429 1531.5 724 1531.5 724C1531.5 724 1532.57 723.252 1533.98 722.25C1535.39 721.242 1537.37 719.791 1539.92 717.873C1545.78 713.108 1523.41 726.247 1281.5 886C1144.25 976.635 1145 984 790 1096C639.288 1143.55 450.5 1160.67 244.5 1056.5C137.689 1002.49 0 766 0 766V0.367188H113.758H419.5H673Z" fill="url(#paint0_linear_886_33)"/>
<defs>
<linearGradient id="paint0_linear_886_33" x1="1346" y1="1066.5" x2="217.088" y2="-190.199" gradientUnits="userSpaceOnUse">
<stop stop-color="#F9DD80"/>
<stop offset="0.495" stop-color="#F4BB00"/>
<stop offset="1" stop-color="#F46B00"/>
</linearGradient>
</defs>
</svg>
