<svg width="1400" height="1024" viewBox="0 0 1400 1024" fill="none" xmlns="http://www.w3.org/2000/svg">
<path d="M664.287 0H0V885.878C0 885.878 160.562 1095.16 421.345 998.501C632.142 920.371 883.618 740.893 883.618 740.893C883.618 740.893 1171.69 552.757 1382.62 379.326C1424.18 345.156 1386.61 294.972 1318.61 350.847C1268.76 391.806 1253.54 379.326 1253.54 379.326C1253.54 379.326 1240.42 375.84 1289.75 305.074C1312 273.152 1280.87 228.469 1209.51 242.277C1098.64 263.73 976.365 387.045 920.348 305.074C916.306 299.159 915.093 327.08 837.968 135.924C792.876 24.1642 664.287 0 664.287 0Z" fill="url(#paint0_linear_898_35)"/>
<defs>
<linearGradient id="paint0_linear_898_35" x1="1400.46" y1="984.261" x2="234.878" y2="-226.6" gradientUnits="userSpaceOnUse">
<stop stop-color="#F9DD80"/>
<stop offset="0.449468" stop-color="#F4BB00"/>
<stop offset="0.842621" stop-color="#F46B00"/>
</linearGradient>
</defs>
</svg>
