<svg width="1350" height="800" viewBox="0 0 1350 800" fill="none" xmlns="http://www.w3.org/2000/svg">
<path d="M655.319 73.3919C574.905 -8.39029 455.468 0.00109791 455.468 0.00109791L336.294 0.00102474H184.793L76.7155 0.00109791H0V637.364C0 637.364 82.8722 729.491 154.904 765.492C247.159 811.598 326.885 805.891 430.448 781.023C548.609 752.65 608.723 675.037 710.336 617.754C801.649 566.277 898.055 513.819 898.055 513.819C898.055 513.819 1321.24 355.567 1346.36 270.907C1362.78 215.555 1318.37 215.555 1318.37 215.555C1249.85 182.901 1005.98 354.261 976.709 345.374C936.677 333.214 1083.84 255.775 1087.7 215.555C1091.56 175.335 1061.16 151.044 1013.87 165.379C966.577 179.715 804.437 352.144 710.336 302.764C616.236 253.386 763.102 183.007 655.319 73.3919Z" fill="url(#paint0_linear_874_127)"/>
<defs>
<linearGradient id="paint0_linear_874_127" x1="691.515" y1="799.738" x2="164.451" y2="-94.273" gradientUnits="userSpaceOnUse">
<stop stop-color="#F9DD80"/>
<stop offset="0.495" stop-color="#F4BB00"/>
<stop offset="1" stop-color="#F46B00"/>
</linearGradient>
</defs>
</svg>
